<svg width="750px" height="750px" viewBox="0 0 500 500" xmlns="http://www.w3.org/2000/svg" xmlns:xlink="http://www.w3.org/1999/xlink" style="background-color: #101010;"><style> @keyframes glitch { 0% {transform: translate(0px); opacity: 0.15;} 7% {transform: translate(2px); opacity: 0.65;} 45% {transform: translate(0px); opacity: 0.35;} 50% {transform: translate(-2px); opacity: 0.85;} 100% {transform: translate(0px); opacity: 0.25;} } </style> <defs> <filter id="background" x="-20%" y="-20%" width="140%" height="140%" filterUnits="objectBoundingBox" primitiveUnits="userSpaceOnUse" color-interpolation-filters="linearRGB"> <feTurbulence type="fractalNoise" baseFrequency="10" numOctaves="4" seed="1" stitchTiles="stitch" x="0%" y="0%" width="100%" height="100%" result="turbulence"> <animate attributeName="seed" dur="1s" repeatCount="indefinite" calcMode="discrete" values="1;2;3;4;5;6;7;8;9;10" /> </feTurbulence> <feSpecularLighting surfaceScale="10" specularExponent="10" lighting-color="#fff" width="100%" height="100%"> <animate attributeName="surfaceScale" dur="1s" repeatCount="indefinite" calcMode="discrete" values="10;11;12;13;14;15;14;13;12;11" /> <feDistantLight elevation="100"/> </feSpecularLighting> </filter> </defs> <g opacity="10%"> <rect width="700" height="700" fill="hsl(23, 0%, 100%)" filter="url(#background)"></rect></g><defs><filter id="squares" x="-30%" y="-30%" width="160%" height="160%"> <feTurbulence type="turbulence" baseFrequency="0.05 0.005" numOctaves="10" seed="" result="turbulence"> <animate attributeName="seed" dur="0.3s" repeatCount="indefinite" calcMode="discrete" values="1;2;3;4;5;6;7;8;9;1"/> </feTurbulence> <feDisplacementMap in="SourceGraphic" in2="turbulence" scale="35" xChannelSelector="R" yChannelSelector="G" /> </filter> </defs><style alt="surround"> #1 { stroke-dasharray: 50,50,150 }</style><g style="filter: url(#squares);" opacity="100%" id="1"> <g transform="translate(-7, -7)" ><g style="animation: glitch 1.13s infinite;"> <rect x="18%" y="18%" width="64%" height="64%" fill="none" stroke="rgb(140,140,140)" id="1" /> </g><g style="animation: glitch 1.12s infinite;"> <rect x="17%" y="17%" width="66%" height="66%" fill="none" stroke="rgb(140,140,140)" id="1" /> </g><g style="animation: glitch 1.11s infinite;"> <rect x="16%" y="16%" width="68%" height="68%" fill="none" stroke="rgb(140,140,140)" id="1" /> </g><g style="animation: glitch 1.10s infinite;"> <rect x="15%" y="15%" width="70%" height="70%" fill="none" stroke="rgb(140,140,140)" id="1" /> </g><g style="animation: glitch 1.9s infinite;"> <rect x="14%" y="14%" width="72%" height="72%" fill="none" stroke="rgb(140,140,140)" id="1" /> </g><g style="animation: glitch 1.8s infinite;"> <rect x="13%" y="13%" width="74%" height="74%" fill="none" stroke="rgb(140,140,140)" id="1" /> </g><g style="animation: glitch 1.7s infinite;"> <rect x="12%" y="12%" width="76%" height="76%" fill="none" stroke="rgb(140,140,140)" id="1" /> </g><g style="animation: glitch 1.6s infinite;"> <rect x="11%" y="11%" width="78%" height="78%" fill="none" stroke="rgb(140,140,140)" id="1" /> </g><g style="animation: glitch 1.5s infinite;"> <rect x="10%" y="10%" width="80%" height="80%" fill="none" stroke="rgb(140,140,140)" id="1" /> </g><g style="animation: glitch 1.4s infinite;"> <rect x="9%" y="9%" width="82%" height="82%" fill="none" stroke="rgb(140,140,140)" id="1" /> </g><g style="animation: glitch 1.3s infinite;"> <rect x="8%" y="8%" width="84%" height="84%" fill="none" stroke="rgb(140,140,140)" id="1" /> </g><g style="animation: glitch 1.2s infinite;"> <rect x="7%" y="7%" width="86%" height="86%" fill="none" stroke="rgb(140,140,140)" id="1" /> </g><g style="animation: glitch 1.1s infinite;"> <rect x="6%" y="6%" width="88%" height="88%" fill="none" stroke="rgb(140,140,140)" id="1" /> </g><g style="animation: glitch 1.0s infinite;"> <rect x="5%" y="5%" width="90%" height="90%" fill="none" stroke="rgb(140,140,140)" id="1" /> </g></g> </g><g style="animation: glitch 0.5s infinite;filter: url(#squares);"> <g transform="scale(0.50) translate(370, 287)" style="opacity:40%"> <path fill="rgb(52,52,52)" d="M125.166 285.168l2.795 2.79 127.962-75.638L127.961 0l-2.795 9.5z"/><path fill="rgb(140,140,140)" d="M127.962 287.959V0L0 212.32z"/><path fill="rgb(52,52,52)" d="M126.386 412.306l1.575 4.6L256 236.587l-128.038 75.6-1.575 1.92z"/><path fill="rgb(140,140,140)" d="M0 236.585l127.962 180.32v-104.72z"/><path fill="rgb(20,20,20)" d="M127.961 154.159v133.799l127.96-75.637z"/><path fill="rgb(57,57,57)" d="M127.96 154.159L0 212.32l127.96 75.637z"/> </g> </g> </svg>